<mxfile host="65bd71144e">
    <diagram id="wJdvFxLL_oxtADGC-U4-" name="Page-1">
        <mxGraphModel dx="4162" dy="2543" grid="1" gridSize="10" guides="1" tooltips="1" connect="1" arrows="1" fold="1" page="1" pageScale="1" pageWidth="850" pageHeight="1100" math="0" shadow="0">
            <root>
                <mxCell id="0"/>
                <mxCell id="1" parent="0"/>
                <mxCell id="4" value="" style="edgeStyle=none;html=1;" parent="1" source="2" target="3" edge="1">
                    <mxGeometry relative="1" as="geometry"/>
                </mxCell>
                <mxCell id="2" value="Retrieve ALL SleepSync motion" style="whiteSpace=wrap;html=1;" parent="1" vertex="1">
                    <mxGeometry x="90" y="90" width="150" height="60" as="geometry"/>
                </mxCell>
                <mxCell id="6" value="No" style="edgeStyle=none;html=1;exitX=1;exitY=0.5;exitDx=0;exitDy=0;" parent="1" source="3" target="5" edge="1">
                    <mxGeometry relative="1" as="geometry">
                        <mxPoint x="260" y="250" as="sourcePoint"/>
                    </mxGeometry>
                </mxCell>
                <mxCell id="36" value="Yes" style="edgeStyle=none;html=1;" parent="1" source="3" target="35" edge="1">
                    <mxGeometry relative="1" as="geometry"/>
                </mxCell>
                <mxCell id="3" value="Any motion" style="rhombus;whiteSpace=wrap;html=1;" parent="1" vertex="1">
                    <mxGeometry x="125" y="210" width="80" height="80" as="geometry"/>
                </mxCell>
                <mxCell id="8" value="" style="edgeStyle=none;html=1;" parent="1" source="5" target="7" edge="1">
                    <mxGeometry relative="1" as="geometry"/>
                </mxCell>
                <mxCell id="5" value="Set Hypno model to no_motion" style="whiteSpace=wrap;html=1;" parent="1" vertex="1">
                    <mxGeometry x="420" y="220" width="120" height="60" as="geometry"/>
                </mxCell>
                <mxCell id="12" value="" style="edgeStyle=none;html=1;" parent="1" source="7" target="11" edge="1">
                    <mxGeometry relative="1" as="geometry"/>
                </mxCell>
                <mxCell id="7" value="Create fake motion from sleep records:&lt;br&gt;&lt;br&gt;Sets fake motion right at the begining of a sleep records (3 mins and decays)&lt;br&gt;&lt;br&gt;Does not generate motion for the entire gaps between sleep records&amp;nbsp;" style="whiteSpace=wrap;html=1;" parent="1" vertex="1">
                    <mxGeometry x="405" y="340" width="150" height="180" as="geometry"/>
                </mxCell>
                <mxCell id="14" value="Yes" style="edgeStyle=none;html=1;" parent="1" source="11" target="13" edge="1">
                    <mxGeometry relative="1" as="geometry"/>
                </mxCell>
                <mxCell id="21" value="No" style="edgeStyle=none;html=1;" parent="1" source="11" target="20" edge="1">
                    <mxGeometry relative="1" as="geometry"/>
                </mxCell>
                <mxCell id="11" value="Any fake Motion generated?" style="rhombus;whiteSpace=wrap;html=1;" parent="1" vertex="1">
                    <mxGeometry x="420" y="560" width="110" height="100" as="geometry"/>
                </mxCell>
                <mxCell id="19" value="" style="edgeStyle=none;html=1;entryX=1;entryY=0.5;entryDx=0;entryDy=0;" parent="1" source="13" target="35" edge="1">
                    <mxGeometry relative="1" as="geometry">
                        <mxPoint x="405" y="820" as="targetPoint"/>
                        <Array as="points">
                            <mxPoint x="390" y="840"/>
                        </Array>
                    </mxGeometry>
                </mxCell>
                <mxCell id="13" value="&lt;span style=&quot;color: rgb(156 , 220 , 254) ; background-color: rgb(30 , 30 , 30) ; font-family: &amp;#34;menlo&amp;#34; , &amp;#34;monaco&amp;#34; , &amp;#34;courier new&amp;#34; , monospace&quot;&gt;motionFromSleepOrEnergy = true&lt;/span&gt;" style="whiteSpace=wrap;html=1;" parent="1" vertex="1">
                    <mxGeometry x="360" y="720" width="230" height="60" as="geometry"/>
                </mxCell>
                <mxCell id="26" value="" style="edgeStyle=none;html=1;" parent="1" source="20" target="25" edge="1">
                    <mxGeometry relative="1" as="geometry"/>
                </mxCell>
                <mxCell id="20" value="Retrieve All Active Energy within 24 hour window" style="whiteSpace=wrap;html=1;" parent="1" vertex="1">
                    <mxGeometry x="825" y="580" width="120" height="60" as="geometry"/>
                </mxCell>
                <mxCell id="28" value="Yes" style="edgeStyle=none;html=1;entryX=1;entryY=0.5;entryDx=0;entryDy=0;" parent="1" source="25" target="386" edge="1">
                    <mxGeometry relative="1" as="geometry">
                        <mxPoint x="755" y="750" as="targetPoint"/>
                    </mxGeometry>
                </mxCell>
                <mxCell id="34" value="No" style="edgeStyle=none;html=1;entryX=1;entryY=0.5;entryDx=0;entryDy=0;" parent="1" source="25" target="35" edge="1">
                    <mxGeometry x="-0.8414" relative="1" as="geometry">
                        <mxPoint x="270" y="870" as="targetPoint"/>
                        <Array as="points">
                            <mxPoint x="770" y="840"/>
                        </Array>
                        <mxPoint as="offset"/>
                    </mxGeometry>
                </mxCell>
                <mxCell id="25" value="Any Active energy?" style="rhombus;whiteSpace=wrap;html=1;" parent="1" vertex="1">
                    <mxGeometry x="845" y="710" width="80" height="80" as="geometry"/>
                </mxCell>
                <mxCell id="30" value="" style="edgeStyle=none;html=1;entryX=1;entryY=0.5;entryDx=0;entryDy=0;exitX=0;exitY=0.5;exitDx=0;exitDy=0;" parent="1" source="386" target="13" edge="1">
                    <mxGeometry relative="1" as="geometry">
                        <mxPoint x="555" y="830" as="targetPoint"/>
                        <mxPoint x="635" y="750" as="sourcePoint"/>
                    </mxGeometry>
                </mxCell>
                <mxCell id="39" value="" style="edgeStyle=none;html=1;" parent="1" source="35" target="38" edge="1">
                    <mxGeometry relative="1" as="geometry">
                        <Array as="points">
                            <mxPoint x="10" y="840"/>
                            <mxPoint x="10" y="350"/>
                        </Array>
                    </mxGeometry>
                </mxCell>
                <mxCell id="35" value="Retrieve HeartRate Records in 24 hour window" style="whiteSpace=wrap;html=1;" parent="1" vertex="1">
                    <mxGeometry x="105" y="810" width="120" height="60" as="geometry"/>
                </mxCell>
                <mxCell id="41" value="" style="edgeStyle=none;html=1;" parent="1" source="38" target="40" edge="1">
                    <mxGeometry relative="1" as="geometry"/>
                </mxCell>
                <mxCell id="38" value="Retrieve all stand records in the 24 hr range" style="whiteSpace=wrap;html=1;" parent="1" vertex="1">
                    <mxGeometry x="-310" y="320" width="120" height="60" as="geometry"/>
                </mxCell>
                <mxCell id="43" value="" style="edgeStyle=none;html=1;" parent="1" source="40" target="42" edge="1">
                    <mxGeometry relative="1" as="geometry"/>
                </mxCell>
                <mxCell id="40" value="Retrieve all sleep/inbed records in the 24 hr range" style="whiteSpace=wrap;html=1;" parent="1" vertex="1">
                    <mxGeometry x="-310" y="460" width="120" height="60" as="geometry"/>
                </mxCell>
                <mxCell id="45" value="Yes" style="edgeStyle=none;html=1;" parent="1" source="42" target="44" edge="1">
                    <mxGeometry relative="1" as="geometry"/>
                </mxCell>
                <mxCell id="48" value="No" style="edgeStyle=none;html=1;entryX=1;entryY=0.5;entryDx=0;entryDy=0;" parent="1" source="42" target="58" edge="1">
                    <mxGeometry relative="1" as="geometry">
                        <mxPoint x="-370" y="690" as="targetPoint"/>
                    </mxGeometry>
                </mxCell>
                <mxCell id="42" value="Any bed/sleep records?" style="rhombus;whiteSpace=wrap;html=1;" parent="1" vertex="1">
                    <mxGeometry x="-305" y="590" width="110" height="90" as="geometry"/>
                </mxCell>
                <mxCell id="52" value="" style="edgeStyle=none;html=1;" parent="1" source="44" target="51" edge="1">
                    <mxGeometry relative="1" as="geometry"/>
                </mxCell>
                <mxCell id="44" value="Iterate over bed/sleep records.&lt;br&gt;&lt;br&gt;Earliest record equals minSleep&lt;br&gt;Latest record equals maxSleep&lt;br&gt;&lt;br&gt;If sleep record comes before inbed ignore if inbed records exist." style="whiteSpace=wrap;html=1;" parent="1" vertex="1">
                    <mxGeometry x="-310" y="720" width="120" height="165" as="geometry"/>
                </mxCell>
                <mxCell id="70" value="" style="edgeStyle=none;html=1;entryX=0;entryY=0.5;entryDx=0;entryDy=0;" parent="1" source="47" target="73" edge="1">
                    <mxGeometry relative="1" as="geometry">
                        <mxPoint x="105" y="1040" as="targetPoint"/>
                        <Array as="points">
                            <mxPoint x="-690" y="1150"/>
                            <mxPoint x="20" y="1150"/>
                            <mxPoint x="20" y="1040"/>
                        </Array>
                    </mxGeometry>
                </mxCell>
                <mxCell id="47" value="minSleep = start of 24 hr window&lt;br&gt;&lt;br&gt;maxSleep = end of 24 hour window" style="whiteSpace=wrap;html=1;" parent="1" vertex="1">
                    <mxGeometry x="-750" y="590" width="120" height="90" as="geometry"/>
                </mxCell>
                <mxCell id="49" value="Use stand hour records to create Sleep Range&lt;br&gt;&lt;br&gt;Finds the largest continious block of a Idle block&lt;br&gt;&lt;br&gt;Extend block begining and end if there is only a single gap&lt;br&gt;&lt;br&gt;sets minSleep and maxSleep accordingly" style="whiteSpace=wrap;html=1;" parent="1" vertex="1">
                    <mxGeometry x="-570" y="750" width="120" height="260" as="geometry"/>
                </mxCell>
                <mxCell id="54" value="Yes" style="edgeStyle=none;html=1;entryX=0;entryY=0.5;entryDx=0;entryDy=0;" parent="1" source="51" target="73" edge="1">
                    <mxGeometry relative="1" as="geometry">
                        <mxPoint x="105" y="1040" as="targetPoint"/>
                        <Array as="points">
                            <mxPoint x="-250" y="1110"/>
                            <mxPoint x="-90" y="1110"/>
                            <mxPoint x="-90" y="1040"/>
                        </Array>
                    </mxGeometry>
                </mxCell>
                <mxCell id="62" value="No" style="edgeStyle=none;html=1;entryX=1;entryY=0.5;entryDx=0;entryDy=0;" parent="1" source="51" target="58" edge="1">
                    <mxGeometry relative="1" as="geometry">
                        <mxPoint x="-450" y="990" as="targetPoint"/>
                        <Array as="points">
                            <mxPoint x="-400" y="990"/>
                            <mxPoint x="-400" y="635"/>
                        </Array>
                    </mxGeometry>
                </mxCell>
                <mxCell id="51" value="is the difference between minSleep and maxSleep greater than 2 hours?" style="rhombus;whiteSpace=wrap;html=1;" parent="1" vertex="1">
                    <mxGeometry x="-340" y="920" width="180" height="140" as="geometry"/>
                </mxCell>
                <mxCell id="66" value="No" style="edgeStyle=none;html=1;" parent="1" source="58" target="47" edge="1">
                    <mxGeometry relative="1" as="geometry"/>
                </mxCell>
                <mxCell id="68" value="" style="edgeStyle=none;html=1;entryX=0.5;entryY=0;entryDx=0;entryDy=0;" parent="1" source="58" target="49" edge="1">
                    <mxGeometry relative="1" as="geometry">
                        <mxPoint x="-510" y="765" as="targetPoint"/>
                    </mxGeometry>
                </mxCell>
                <mxCell id="58" value="Any stand hour records?" style="rhombus;whiteSpace=wrap;html=1;" parent="1" vertex="1">
                    <mxGeometry x="-550" y="595" width="80" height="80" as="geometry"/>
                </mxCell>
                <mxCell id="75" value="True" style="edgeStyle=none;html=1;" parent="1" source="73" target="74" edge="1">
                    <mxGeometry relative="1" as="geometry"/>
                </mxCell>
                <mxCell id="90" value="False" style="edgeStyle=none;html=1;" parent="1" source="73" target="89" edge="1">
                    <mxGeometry relative="1" as="geometry"/>
                </mxCell>
                <mxCell id="73" value="If&lt;br&gt;(no motion(fake/real) or &lt;br&gt;no heartRate)&lt;br&gt;and&lt;br&gt;no stand records (idle or stand)at all&lt;br&gt;and&lt;br&gt;no inbed records&lt;br&gt;and&lt;br&gt;no sleep records" style="rhombus;whiteSpace=wrap;html=1;" parent="1" vertex="1">
                    <mxGeometry x="70" y="920" width="230" height="240" as="geometry"/>
                </mxCell>
                <mxCell id="77" value="" style="edgeStyle=none;html=1;" parent="1" source="74" target="76" edge="1">
                    <mxGeometry relative="1" as="geometry"/>
                </mxCell>
                <mxCell id="74" value="Retrieve last available ever" style="whiteSpace=wrap;html=1;" parent="1" vertex="1">
                    <mxGeometry x="435" y="1010" width="120" height="60" as="geometry"/>
                </mxCell>
                <mxCell id="79" value="No" style="edgeStyle=none;html=1;" parent="1" source="76" target="78" edge="1">
                    <mxGeometry relative="1" as="geometry"/>
                </mxCell>
                <mxCell id="81" value="" style="edgeStyle=none;html=1;" parent="1" source="76" target="80" edge="1">
                    <mxGeometry relative="1" as="geometry"/>
                </mxCell>
                <mxCell id="76" value="record Exist?" style="rhombus;whiteSpace=wrap;html=1;" parent="1" vertex="1">
                    <mxGeometry x="455" y="1130" width="85" height="90" as="geometry"/>
                </mxCell>
                <mxCell id="83" value="" style="edgeStyle=none;html=1;entryX=0.5;entryY=0;entryDx=0;entryDy=0;" parent="1" source="78" target="80" edge="1">
                    <mxGeometry relative="1" as="geometry">
                        <mxPoint x="662.5" y="1285" as="targetPoint"/>
                        <Array as="points">
                            <mxPoint x="498" y="1290"/>
                        </Array>
                    </mxGeometry>
                </mxCell>
                <mxCell id="78" value="set utc offset to be - 8 hrs,&amp;nbsp;&amp;nbsp;" style="whiteSpace=wrap;html=1;" parent="1" vertex="1">
                    <mxGeometry x="602.5" y="1145" width="120" height="60" as="geometry"/>
                </mxCell>
                <mxCell id="85" value="" style="edgeStyle=none;html=1;entryX=0;entryY=0.5;entryDx=0;entryDy=0;" parent="1" source="80" target="109" edge="1">
                    <mxGeometry relative="1" as="geometry">
                        <mxPoint x="1420" y="240" as="targetPoint"/>
                        <Array as="points">
                            <mxPoint x="1050" y="1345"/>
                            <mxPoint x="1060" y="240"/>
                        </Array>
                    </mxGeometry>
                </mxCell>
                <mxCell id="80" value="set minBed midnight local using utcOffset, maxBed to start 8 hours later" style="whiteSpace=wrap;html=1;" parent="1" vertex="1">
                    <mxGeometry x="437.5" y="1315" width="120" height="60" as="geometry"/>
                </mxCell>
                <mxCell id="92" value="" style="edgeStyle=none;html=1;entryX=0;entryY=0.5;entryDx=0;entryDy=0;" parent="1" source="89" target="109" edge="1">
                    <mxGeometry relative="1" as="geometry">
                        <mxPoint x="1420" y="240" as="targetPoint"/>
                        <Array as="points">
                            <mxPoint x="1050" y="1490"/>
                            <mxPoint x="1060" y="240"/>
                        </Array>
                    </mxGeometry>
                </mxCell>
                <mxCell id="93" value="True" style="edgeLabel;html=1;align=center;verticalAlign=middle;resizable=0;points=[];" parent="92" vertex="1" connectable="0">
                    <mxGeometry x="-0.9317" y="-1" relative="1" as="geometry">
                        <mxPoint as="offset"/>
                    </mxGeometry>
                </mxCell>
                <mxCell id="97" value="" style="edgeStyle=none;html=1;" parent="1" source="89" target="96" edge="1">
                    <mxGeometry relative="1" as="geometry"/>
                </mxCell>
                <mxCell id="89" value="&lt;span&gt;If&lt;/span&gt;&lt;br&gt;&lt;span&gt;(no motion(fake/real) or&lt;/span&gt;&lt;br&gt;&lt;span&gt;no heartRate)&lt;/span&gt;" style="rhombus;whiteSpace=wrap;html=1;" parent="1" vertex="1">
                    <mxGeometry x="115" y="1410" width="140" height="150" as="geometry"/>
                </mxCell>
                <mxCell id="99" value="" style="edgeStyle=none;html=1;" parent="1" source="96" target="98" edge="1">
                    <mxGeometry relative="1" as="geometry"/>
                </mxCell>
                <mxCell id="100" value="Yes" style="edgeLabel;html=1;align=center;verticalAlign=middle;resizable=0;points=[];" parent="99" vertex="1" connectable="0">
                    <mxGeometry x="-0.2425" relative="1" as="geometry">
                        <mxPoint as="offset"/>
                    </mxGeometry>
                </mxCell>
                <mxCell id="102" value="No" style="edgeStyle=none;html=1;" parent="1" source="96" target="101" edge="1">
                    <mxGeometry relative="1" as="geometry"/>
                </mxCell>
                <mxCell id="96" value="Are we using fake motion?" style="rhombus;whiteSpace=wrap;html=1;" parent="1" vertex="1">
                    <mxGeometry x="120" y="1630" width="130" height="130" as="geometry"/>
                </mxCell>
                <mxCell id="106" value="" style="edgeStyle=none;html=1;entryX=0;entryY=0.5;entryDx=0;entryDy=0;" parent="1" source="98" target="103" edge="1">
                    <mxGeometry relative="1" as="geometry">
                        <mxPoint x="-17.5" y="1840" as="targetPoint"/>
                        <Array as="points">
                            <mxPoint x="-17" y="2108"/>
                        </Array>
                    </mxGeometry>
                </mxCell>
                <mxCell id="98" value="create List of motion that only exists in sleep range&lt;br&gt;&lt;br&gt;And amplify motion according scale" style="whiteSpace=wrap;html=1;" parent="1" vertex="1">
                    <mxGeometry x="-80" y="1647.5" width="125" height="95" as="geometry"/>
                </mxCell>
                <mxCell id="104" value="" style="edgeStyle=none;html=1;" parent="1" source="101" target="103" edge="1">
                    <mxGeometry relative="1" as="geometry"/>
                </mxCell>
                <mxCell id="101" value="Use SleepSync motion and amplify values&lt;br&gt;&lt;br&gt;As well as reseting the sleep range to start with motion start and end end with motion end" style="whiteSpace=wrap;html=1;" parent="1" vertex="1">
                    <mxGeometry x="100" y="1850" width="170" height="130" as="geometry"/>
                </mxCell>
                <mxCell id="108" value="" style="edgeStyle=none;html=1;entryX=0;entryY=0.5;entryDx=0;entryDy=0;" parent="1" source="103" target="109" edge="1">
                    <mxGeometry relative="1" as="geometry">
                        <mxPoint x="1420" y="240" as="targetPoint"/>
                        <Array as="points">
                            <mxPoint x="1050" y="2108"/>
                            <mxPoint x="1060" y="240"/>
                        </Array>
                    </mxGeometry>
                </mxCell>
                <mxCell id="103" value="Analayse heartrate records within the sleep range and create list of heartrates" style="whiteSpace=wrap;html=1;" parent="1" vertex="1">
                    <mxGeometry x="125" y="2060" width="120" height="95" as="geometry"/>
                </mxCell>
                <mxCell id="111" value="" style="edgeStyle=none;html=1;" parent="1" source="109" target="110" edge="1">
                    <mxGeometry relative="1" as="geometry"/>
                </mxCell>
                <mxCell id="112" value="No" style="edgeLabel;html=1;align=center;verticalAlign=middle;resizable=0;points=[];" parent="111" vertex="1" connectable="0">
                    <mxGeometry x="0.2211" relative="1" as="geometry">
                        <mxPoint as="offset"/>
                    </mxGeometry>
                </mxCell>
                <mxCell id="114" value="Yes" style="edgeStyle=none;html=1;" parent="1" source="109" target="113" edge="1">
                    <mxGeometry relative="1" as="geometry"/>
                </mxCell>
                <mxCell id="109" value="Any Heart rate records or&lt;br&gt;motion records?&lt;br&gt;&lt;br&gt;Note: &lt;br&gt;Within the 24 hour window,&lt;br&gt;not contained within&lt;br&gt;the sleep window" style="rhombus;whiteSpace=wrap;html=1;" parent="1" vertex="1">
                    <mxGeometry x="1290" y="120" width="245" height="230" as="geometry"/>
                </mxCell>
                <mxCell id="110" value="Create a fake hypnogram using the&amp;nbsp; sleep range.&lt;br&gt;&lt;br&gt;This is No_Watch!" style="whiteSpace=wrap;html=1;" parent="1" vertex="1">
                    <mxGeometry x="1677.5" y="190" width="122.5" height="90" as="geometry"/>
                </mxCell>
                <mxCell id="116" value="" style="edgeStyle=none;html=1;" parent="1" source="113" target="115" edge="1">
                    <mxGeometry relative="1" as="geometry"/>
                </mxCell>
                <mxCell id="113" value="Grab all of the hypnostat params" style="whiteSpace=wrap;html=1;" parent="1" vertex="1">
                    <mxGeometry x="1352.5" y="450" width="120" height="60" as="geometry"/>
                </mxCell>
                <mxCell id="121" value="" style="edgeStyle=none;html=1;" parent="1" source="115" target="120" edge="1">
                    <mxGeometry relative="1" as="geometry"/>
                </mxCell>
                <mxCell id="146" value="" style="edgeStyle=none;html=1;entryX=0.5;entryY=0;entryDx=0;entryDy=0;" parent="1" source="115" target="147" edge="1">
                    <mxGeometry relative="1" as="geometry">
                        <mxPoint x="1410" y="1090" as="targetPoint"/>
                        <Array as="points">
                            <mxPoint x="1160" y="620"/>
                            <mxPoint x="1160" y="970"/>
                            <mxPoint x="1410" y="970"/>
                        </Array>
                    </mxGeometry>
                </mxCell>
                <mxCell id="115" value="&lt;div style=&quot;color: rgb(212 , 212 , 212) ; background-color: rgb(30 , 30 , 30) ; font-family: &amp;#34;menlo&amp;#34; , &amp;#34;monaco&amp;#34; , &amp;#34;courier new&amp;#34; , monospace ; line-height: 18px&quot;&gt;&lt;span style=&quot;color: #c586c0&quot;&gt;for&lt;/span&gt; &lt;span style=&quot;color: #9cdcfe&quot;&gt;i4&lt;/span&gt; := &lt;span style=&quot;color: #b5cea8&quot;&gt;0&lt;/span&gt;; i4 &amp;lt; &lt;span style=&quot;color: #b5cea8&quot;&gt;12&lt;/span&gt;; i4++&lt;/div&gt;" style="whiteSpace=wrap;html=1;" parent="1" vertex="1">
                    <mxGeometry x="1300" y="590" width="230" height="60" as="geometry"/>
                </mxCell>
                <mxCell id="126" value="" style="edgeStyle=none;html=1;entryX=1;entryY=0.5;entryDx=0;entryDy=0;" parent="1" source="117" target="115" edge="1">
                    <mxGeometry relative="1" as="geometry">
                        <mxPoint x="1775" y="660" as="targetPoint"/>
                        <Array as="points">
                            <mxPoint x="1855" y="620"/>
                        </Array>
                    </mxGeometry>
                </mxCell>
                <mxCell id="128" value="" style="edgeStyle=none;html=1;entryX=0.53;entryY=0.008;entryDx=0;entryDy=0;entryPerimeter=0;" parent="1" source="117" target="127" edge="1">
                    <mxGeometry relative="1" as="geometry">
                        <mxPoint x="1855" y="870" as="targetPoint"/>
                    </mxGeometry>
                </mxCell>
                <mxCell id="117" value="&lt;div style=&quot;color: rgb(212 , 212 , 212) ; background-color: rgb(30 , 30 , 30) ; font-family: &amp;#34;menlo&amp;#34; , &amp;#34;monaco&amp;#34; , &amp;#34;courier new&amp;#34; , monospace ; line-height: 18px&quot;&gt;&lt;div style=&quot;font-family: &amp;#34;menlo&amp;#34; , &amp;#34;monaco&amp;#34; , &amp;#34;courier new&amp;#34; , monospace ; line-height: 18px&quot;&gt;&lt;span style=&quot;color: #c586c0&quot;&gt;for&lt;/span&gt; &lt;span style=&quot;color: #9cdcfe&quot;&gt;i3&lt;/span&gt; := &lt;span style=&quot;color: #b5cea8&quot;&gt;0&lt;/span&gt;; i3 &amp;lt; &lt;span style=&quot;color: #b5cea8&quot;&gt;12&lt;/span&gt;; i3++&lt;/div&gt;&lt;/div&gt;" style="whiteSpace=wrap;html=1;" parent="1" vertex="1">
                    <mxGeometry x="1740" y="740" width="230" height="60" as="geometry"/>
                </mxCell>
                <mxCell id="122" value="" style="edgeStyle=none;html=1;" parent="1" source="120" target="117" edge="1">
                    <mxGeometry relative="1" as="geometry"/>
                </mxCell>
                <mxCell id="120" value="&lt;meta charset=&quot;utf-8&quot;&gt;&lt;div style=&quot;color: rgb(212, 212, 212); background-color: rgb(30, 30, 30); font-family: menlo, monaco, &amp;quot;courier new&amp;quot;, monospace; font-weight: normal; font-size: 12px; line-height: 18px;&quot;&gt;&lt;div&gt;&lt;span style=&quot;color: #9cdcfe&quot;&gt;inc4&lt;/span&gt;&lt;span style=&quot;color: #d4d4d4&quot;&gt; := (i4%&lt;/span&gt;&lt;span style=&quot;color: #b5cea8&quot;&gt;2&lt;/span&gt;&lt;span style=&quot;color: #d4d4d4&quot;&gt;*&lt;/span&gt;&lt;span style=&quot;color: #b5cea8&quot;&gt;2&lt;/span&gt;&lt;span style=&quot;color: #d4d4d4&quot;&gt; - &lt;/span&gt;&lt;span style=&quot;color: #b5cea8&quot;&gt;1&lt;/span&gt;&lt;span style=&quot;color: #d4d4d4&quot;&gt;) * (&lt;/span&gt;&lt;span style=&quot;color: #dcdcaa&quot;&gt;int&lt;/span&gt;&lt;span style=&quot;color: #d4d4d4&quot;&gt;(math.&lt;/span&gt;&lt;span style=&quot;color: #dcdcaa&quot;&gt;Floor&lt;/span&gt;&lt;span style=&quot;color: #d4d4d4&quot;&gt;(&lt;/span&gt;&lt;span style=&quot;color: #dcdcaa&quot;&gt;float64&lt;/span&gt;&lt;span style=&quot;color: #d4d4d4&quot;&gt;(i4) / &lt;/span&gt;&lt;span style=&quot;color: #b5cea8&quot;&gt;2.0&lt;/span&gt;&lt;span style=&quot;color: #d4d4d4&quot;&gt;)))&lt;/span&gt;&lt;/div&gt;&lt;div&gt;&lt;span style=&quot;color: #d4d4d4&quot;&gt;            &lt;/span&gt;&lt;span style=&quot;color: #9cdcfe&quot;&gt;hp.HrAvgRemExit&lt;/span&gt;&lt;span style=&quot;color: #d4d4d4&quot;&gt; = hpStart.HrAvgRemExit + (&lt;/span&gt;&lt;span style=&quot;color: #dcdcaa&quot;&gt;float64&lt;/span&gt;&lt;span style=&quot;color: #d4d4d4&quot;&gt;(inc4) * PDelta)&lt;/span&gt;&lt;/div&gt;&lt;/div&gt;" style="whiteSpace=wrap;html=1;" parent="1" vertex="1">
                    <mxGeometry x="1255" y="720" width="320" height="110" as="geometry"/>
                </mxCell>
                <mxCell id="130" value="" style="edgeStyle=none;html=1;exitX=1;exitY=0.5;exitDx=0;exitDy=0;" parent="1" source="127" target="129" edge="1">
                    <mxGeometry relative="1" as="geometry">
                        <mxPoint x="2050" y="920" as="sourcePoint"/>
                    </mxGeometry>
                </mxCell>
                <mxCell id="127" value="&lt;div style=&quot;color: rgb(212 , 212 , 212) ; background-color: rgb(30 , 30 , 30) ; font-family: &amp;#34;menlo&amp;#34; , &amp;#34;monaco&amp;#34; , &amp;#34;courier new&amp;#34; , monospace ; line-height: 18px&quot;&gt;&lt;div&gt;&lt;span style=&quot;color: #9cdcfe&quot;&gt;inc3&lt;/span&gt; := (i3%&lt;span style=&quot;color: #b5cea8&quot;&gt;2&lt;/span&gt;*&lt;span style=&quot;color: #b5cea8&quot;&gt;2&lt;/span&gt; - &lt;span style=&quot;color: #b5cea8&quot;&gt;1&lt;/span&gt;) * (&lt;span style=&quot;color: #dcdcaa&quot;&gt;int&lt;/span&gt;(math.&lt;span style=&quot;color: #dcdcaa&quot;&gt;Floor&lt;/span&gt;(&lt;span style=&quot;color: #dcdcaa&quot;&gt;float64&lt;/span&gt;(i3) / &lt;span style=&quot;color: #b5cea8&quot;&gt;2.0&lt;/span&gt;)))&lt;/div&gt;&lt;div&gt;                &lt;span style=&quot;color: #9cdcfe&quot;&gt;hp.HrAvgDeepExit&lt;/span&gt; = hpStart.HrAvgDeepExit + (&lt;span style=&quot;color: #dcdcaa&quot;&gt;float64&lt;/span&gt;(inc3) * PDelta)&lt;/div&gt;&lt;/div&gt;" style="whiteSpace=wrap;html=1;" parent="1" vertex="1">
                    <mxGeometry x="1600" y="890" width="490" height="100" as="geometry"/>
                </mxCell>
                <mxCell id="132" value="" style="edgeStyle=none;html=1;entryX=1;entryY=0.5;entryDx=0;entryDy=0;" parent="1" source="129" target="117" edge="1">
                    <mxGeometry relative="1" as="geometry">
                        <mxPoint x="2272.5" y="810" as="targetPoint"/>
                        <Array as="points">
                            <mxPoint x="2300" y="770"/>
                        </Array>
                    </mxGeometry>
                </mxCell>
                <mxCell id="134" value="" style="edgeStyle=none;html=1;" parent="1" source="129" target="133" edge="1">
                    <mxGeometry relative="1" as="geometry"/>
                </mxCell>
                <mxCell id="129" value="&lt;div style=&quot;color: rgb(212 , 212 , 212) ; background-color: rgb(30 , 30 , 30) ; font-family: &amp;#34;menlo&amp;#34; , &amp;#34;monaco&amp;#34; , &amp;#34;courier new&amp;#34; , monospace ; line-height: 18px&quot;&gt;&lt;span style=&quot;color: #c586c0&quot;&gt;for&lt;/span&gt; &lt;span style=&quot;color: #9cdcfe&quot;&gt;i2&lt;/span&gt; := &lt;span style=&quot;color: #b5cea8&quot;&gt;0&lt;/span&gt;; i2 &amp;lt; &lt;span style=&quot;color: #b5cea8&quot;&gt;12&lt;/span&gt;; i2++&lt;/div&gt;" style="whiteSpace=wrap;html=1;" parent="1" vertex="1">
                    <mxGeometry x="2190" y="910" width="225" height="60" as="geometry"/>
                </mxCell>
                <mxCell id="136" value="" style="edgeStyle=none;html=1;" parent="1" source="133" target="135" edge="1">
                    <mxGeometry relative="1" as="geometry"/>
                </mxCell>
                <mxCell id="133" value="&lt;div style=&quot;color: rgb(212 , 212 , 212) ; background-color: rgb(30 , 30 , 30) ; font-family: &amp;#34;menlo&amp;#34; , &amp;#34;monaco&amp;#34; , &amp;#34;courier new&amp;#34; , monospace ; line-height: 18px&quot;&gt;&lt;div&gt;&lt;span style=&quot;color: #9cdcfe&quot;&gt;inc2&lt;/span&gt; := (i2%&lt;span style=&quot;color: #b5cea8&quot;&gt;2&lt;/span&gt;*&lt;span style=&quot;color: #b5cea8&quot;&gt;2&lt;/span&gt; - &lt;span style=&quot;color: #b5cea8&quot;&gt;1&lt;/span&gt;) * (&lt;span style=&quot;color: #dcdcaa&quot;&gt;int&lt;/span&gt;(math.&lt;span style=&quot;color: #dcdcaa&quot;&gt;Floor&lt;/span&gt;(&lt;span style=&quot;color: #dcdcaa&quot;&gt;float64&lt;/span&gt;(i2) / &lt;span style=&quot;color: #b5cea8&quot;&gt;2.0&lt;/span&gt;)))&lt;/div&gt;&lt;div&gt;                    &lt;span style=&quot;color: #9cdcfe&quot;&gt;hp.RemDelta&lt;/span&gt; = hpStart.RemDelta + (&lt;span style=&quot;color: #dcdcaa&quot;&gt;float64&lt;/span&gt;(inc2) * PDelta)&lt;/div&gt;&lt;/div&gt;" style="whiteSpace=wrap;html=1;" parent="1" vertex="1">
                    <mxGeometry x="2067.5" y="1030" width="470" height="80" as="geometry"/>
                </mxCell>
                <mxCell id="138" value="" style="edgeStyle=none;html=1;entryX=1;entryY=0.5;entryDx=0;entryDy=0;" parent="1" source="135" target="129" edge="1">
                    <mxGeometry relative="1" as="geometry">
                        <mxPoint x="2746.25" y="960" as="targetPoint"/>
                        <Array as="points">
                            <mxPoint x="2746" y="940"/>
                        </Array>
                    </mxGeometry>
                </mxCell>
                <mxCell id="140" value="" style="edgeStyle=none;html=1;" parent="1" source="135" target="139" edge="1">
                    <mxGeometry relative="1" as="geometry"/>
                </mxCell>
                <mxCell id="135" value="&lt;div style=&quot;color: rgb(212 , 212 , 212) ; background-color: rgb(30 , 30 , 30) ; font-family: &amp;#34;menlo&amp;#34; , &amp;#34;monaco&amp;#34; , &amp;#34;courier new&amp;#34; , monospace ; line-height: 18px&quot;&gt;&lt;span style=&quot;color: #c586c0&quot;&gt;for&lt;/span&gt; &lt;span style=&quot;color: #9cdcfe&quot;&gt;i1&lt;/span&gt; := &lt;span style=&quot;color: #b5cea8&quot;&gt;0&lt;/span&gt;; i1 &amp;lt; &lt;span style=&quot;color: #b5cea8&quot;&gt;12&lt;/span&gt;; i1++&lt;/div&gt;" style="whiteSpace=wrap;html=1;" parent="1" vertex="1">
                    <mxGeometry x="2630" y="1040" width="232.5" height="60" as="geometry"/>
                </mxCell>
                <mxCell id="330" value="" style="edgeStyle=none;html=1;entryX=0.5;entryY=0;entryDx=0;entryDy=0;" parent="1" source="139" target="327" edge="1">
                    <mxGeometry relative="1" as="geometry">
                        <mxPoint x="2745" y="1375" as="targetPoint"/>
                    </mxGeometry>
                </mxCell>
                <mxCell id="139" value="&lt;div style=&quot;color: rgb(212 , 212 , 212) ; background-color: rgb(30 , 30 , 30) ; font-family: &amp;quot;menlo&amp;quot; , &amp;quot;monaco&amp;quot; , &amp;quot;courier new&amp;quot; , monospace ; line-height: 18px&quot;&gt;&lt;div&gt;&lt;br&gt;&lt;/div&gt;&lt;div&gt;                        &lt;span style=&quot;color: #9cdcfe&quot;&gt;inc1&lt;/span&gt; := (i1%&lt;span style=&quot;color: #b5cea8&quot;&gt;2&lt;/span&gt;*&lt;span style=&quot;color: #b5cea8&quot;&gt;2&lt;/span&gt; - &lt;span style=&quot;color: #b5cea8&quot;&gt;1&lt;/span&gt;) * (&lt;span style=&quot;color: #dcdcaa&quot;&gt;int&lt;/span&gt;(math.&lt;span style=&quot;color: #dcdcaa&quot;&gt;Floor&lt;/span&gt;(&lt;span style=&quot;color: #dcdcaa&quot;&gt;float64&lt;/span&gt;(i1) / &lt;span style=&quot;color: #b5cea8&quot;&gt;2.0&lt;/span&gt;)))&lt;/div&gt;&lt;div&gt;                        &lt;span style=&quot;color: #9cdcfe&quot;&gt;hp.DeepDelta&lt;/span&gt; = hpStart.DeepDelta + (&lt;span style=&quot;color: #dcdcaa&quot;&gt;float64&lt;/span&gt;(inc1) * PDelta)&lt;/div&gt;&lt;div&gt;&lt;br&gt;&lt;/div&gt;&lt;/div&gt;" style="whiteSpace=wrap;html=1;align=center;" parent="1" vertex="1">
                    <mxGeometry x="2510" y="1220" width="470" height="70" as="geometry"/>
                </mxCell>
                <mxCell id="149" value="Yes" style="edgeStyle=none;html=1;" parent="1" source="147" target="148" edge="1">
                    <mxGeometry relative="1" as="geometry"/>
                </mxCell>
                <mxCell id="151" value="No" style="edgeStyle=none;html=1;" parent="1" source="147" target="150" edge="1">
                    <mxGeometry relative="1" as="geometry"/>
                </mxCell>
                <mxCell id="147" value="found fit?" style="rhombus;whiteSpace=wrap;html=1;" parent="1" vertex="1">
                    <mxGeometry x="1372.5" y="1130" width="80" height="80" as="geometry"/>
                </mxCell>
                <mxCell id="153" value="" style="edgeStyle=none;html=1;" parent="1" source="148" target="152" edge="1">
                    <mxGeometry relative="1" as="geometry"/>
                </mxCell>
                <mxCell id="148" value="Use best first fit" style="whiteSpace=wrap;html=1;" parent="1" vertex="1">
                    <mxGeometry x="1275" y="1250" width="120" height="60" as="geometry"/>
                </mxCell>
                <mxCell id="154" value="" style="edgeStyle=none;html=1;" parent="1" source="150" target="152" edge="1">
                    <mxGeometry relative="1" as="geometry"/>
                </mxCell>
                <mxCell id="150" value="use best fit" style="whiteSpace=wrap;html=1;" parent="1" vertex="1">
                    <mxGeometry x="1440" y="1250" width="120" height="60" as="geometry"/>
                </mxCell>
                <mxCell id="318" style="edgeStyle=none;html=1;" parent="1" source="152" target="317" edge="1">
                    <mxGeometry relative="1" as="geometry">
                        <Array as="points">
                            <mxPoint x="1600" y="1510"/>
                        </Array>
                    </mxGeometry>
                </mxCell>
                <mxCell id="152" value="HypnoCalc2&lt;br&gt;Start" style="whiteSpace=wrap;html=1;" parent="1" vertex="1">
                    <mxGeometry x="1355" y="1410" width="120" height="60" as="geometry"/>
                </mxCell>
                <mxCell id="272" value="" style="edgeStyle=none;html=1;" parent="1" source="155" target="271" edge="1">
                    <mxGeometry relative="1" as="geometry"/>
                </mxCell>
                <mxCell id="155" value="iterate over ptStates,&lt;br&gt;ignoring any value before sleep range start and sleep range end" style="whiteSpace=wrap;html=1;" parent="1" vertex="1">
                    <mxGeometry x="2142.5" y="2010" width="130" height="72.5" as="geometry"/>
                </mxCell>
                <mxCell id="160" value="" style="edgeStyle=none;html=1;" parent="1" source="157" target="159" edge="1">
                    <mxGeometry relative="1" as="geometry"/>
                </mxCell>
                <mxCell id="157" value="Switch:&lt;br&gt;type of record" style="whiteSpace=wrap;html=1;" parent="1" vertex="1">
                    <mxGeometry x="2150" y="2210" width="120" height="60" as="geometry"/>
                </mxCell>
                <mxCell id="162" value="" style="edgeStyle=none;html=1;" parent="1" source="159" target="161" edge="1">
                    <mxGeometry relative="1" as="geometry"/>
                </mxCell>
                <mxCell id="164" value="" style="edgeStyle=none;html=1;" parent="1" source="159" target="163" edge="1">
                    <mxGeometry relative="1" as="geometry"/>
                </mxCell>
                <mxCell id="159" value="HeartRate" style="rhombus;whiteSpace=wrap;html=1;" parent="1" vertex="1">
                    <mxGeometry x="2167.5" y="2298.75" width="80" height="80" as="geometry"/>
                </mxCell>
                <mxCell id="166" value="" style="edgeStyle=none;html=1;" parent="1" source="161" target="165" edge="1">
                    <mxGeometry relative="1" as="geometry"/>
                </mxCell>
                <mxCell id="168" value="" style="edgeStyle=none;html=1;" parent="1" source="161" target="167" edge="1">
                    <mxGeometry relative="1" as="geometry"/>
                </mxCell>
                <mxCell id="161" value="Motion" style="rhombus;whiteSpace=wrap;html=1;" parent="1" vertex="1">
                    <mxGeometry x="2167.5" y="2458.75" width="80" height="80" as="geometry"/>
                </mxCell>
                <mxCell id="172" value="" style="edgeStyle=none;html=1;" parent="1" source="163" target="171" edge="1">
                    <mxGeometry relative="1" as="geometry">
                        <Array as="points">
                            <mxPoint x="2530" y="2339"/>
                            <mxPoint x="2530" y="2850"/>
                        </Array>
                    </mxGeometry>
                </mxCell>
                <mxCell id="163" value="lastHR = HR" style="whiteSpace=wrap;html=1;" parent="1" vertex="1">
                    <mxGeometry x="2307.5" y="2308.75" width="120" height="60" as="geometry"/>
                </mxCell>
                <mxCell id="174" value="" style="edgeStyle=none;html=1;" parent="1" source="165" edge="1">
                    <mxGeometry relative="1" as="geometry">
                        <mxPoint x="2532.5" y="2498.5" as="targetPoint"/>
                    </mxGeometry>
                </mxCell>
                <mxCell id="165" value="lastMotion = motion" style="whiteSpace=wrap;html=1;" parent="1" vertex="1">
                    <mxGeometry x="2307.5" y="2468.75" width="120" height="60" as="geometry"/>
                </mxCell>
                <mxCell id="170" value="" style="edgeStyle=none;html=1;" parent="1" source="167" target="169" edge="1">
                    <mxGeometry relative="1" as="geometry"/>
                </mxCell>
                <mxCell id="167" value="Default" style="rhombus;whiteSpace=wrap;html=1;" parent="1" vertex="1">
                    <mxGeometry x="2167.5" y="2618.75" width="80" height="80" as="geometry"/>
                </mxCell>
                <mxCell id="169" value="Error Return" style="whiteSpace=wrap;html=1;" parent="1" vertex="1">
                    <mxGeometry x="2307.5" y="2628.75" width="120" height="60" as="geometry"/>
                </mxCell>
                <mxCell id="177" value="" style="edgeStyle=none;html=1;" parent="1" source="171" target="176" edge="1">
                    <mxGeometry relative="1" as="geometry"/>
                </mxCell>
                <mxCell id="171" value="Switch&lt;br&gt;State of Sleep" style="whiteSpace=wrap;html=1;" parent="1" vertex="1">
                    <mxGeometry x="2170" y="2830" width="120" height="60" as="geometry"/>
                </mxCell>
                <mxCell id="179" value="" style="edgeStyle=none;html=1;" parent="1" source="176" target="178" edge="1">
                    <mxGeometry relative="1" as="geometry"/>
                </mxCell>
                <mxCell id="197" value="" style="edgeStyle=none;html=1;" parent="1" source="176" target="196" edge="1">
                    <mxGeometry relative="1" as="geometry"/>
                </mxCell>
                <mxCell id="176" value="Wake" style="rhombus;whiteSpace=wrap;html=1;" parent="1" vertex="1">
                    <mxGeometry x="2190" y="2960" width="80" height="80" as="geometry"/>
                </mxCell>
                <mxCell id="181" value="" style="edgeStyle=none;html=1;" parent="1" source="178" target="180" edge="1">
                    <mxGeometry relative="1" as="geometry"/>
                </mxCell>
                <mxCell id="199" value="" style="edgeStyle=none;html=1;entryX=0;entryY=0.5;entryDx=0;entryDy=0;" parent="1" source="178" target="210" edge="1">
                    <mxGeometry relative="1" as="geometry">
                        <mxPoint x="2320" y="3200.41" as="targetPoint"/>
                    </mxGeometry>
                </mxCell>
                <mxCell id="178" value="Light" style="rhombus;whiteSpace=wrap;html=1;" parent="1" vertex="1">
                    <mxGeometry x="2195" y="3200" width="80" height="80" as="geometry"/>
                </mxCell>
                <mxCell id="183" value="" style="edgeStyle=none;html=1;" parent="1" source="180" target="182" edge="1">
                    <mxGeometry relative="1" as="geometry"/>
                </mxCell>
                <mxCell id="201" value="" style="edgeStyle=none;html=1;entryX=0;entryY=0.5;entryDx=0;entryDy=0;" parent="1" source="180" target="211" edge="1">
                    <mxGeometry relative="1" as="geometry">
                        <mxPoint x="2310" y="3390.41" as="targetPoint"/>
                    </mxGeometry>
                </mxCell>
                <mxCell id="180" value="REM" style="rhombus;whiteSpace=wrap;html=1;" parent="1" vertex="1">
                    <mxGeometry x="2192.5" y="3440.41" width="80" height="80" as="geometry"/>
                </mxCell>
                <mxCell id="185" value="" style="edgeStyle=none;html=1;" parent="1" source="182" target="184" edge="1">
                    <mxGeometry relative="1" as="geometry">
                        <Array as="points"/>
                    </mxGeometry>
                </mxCell>
                <mxCell id="203" value="" style="edgeStyle=none;html=1;entryX=0;entryY=0.5;entryDx=0;entryDy=0;" parent="1" source="182" target="212" edge="1">
                    <mxGeometry relative="1" as="geometry">
                        <mxPoint x="2320" y="3590" as="targetPoint"/>
                    </mxGeometry>
                </mxCell>
                <mxCell id="182" value="Deep" style="rhombus;whiteSpace=wrap;html=1;" parent="1" vertex="1">
                    <mxGeometry x="2195" y="3650" width="80" height="80" as="geometry"/>
                </mxCell>
                <mxCell id="187" value="" style="edgeStyle=none;html=1;" parent="1" source="184" target="186" edge="1">
                    <mxGeometry relative="1" as="geometry"/>
                </mxCell>
                <mxCell id="184" value="Default" style="rhombus;whiteSpace=wrap;html=1;" parent="1" vertex="1">
                    <mxGeometry x="2200" y="3860" width="80" height="80" as="geometry"/>
                </mxCell>
                <mxCell id="186" value="&lt;span&gt;Error Return&lt;/span&gt;" style="whiteSpace=wrap;html=1;" parent="1" vertex="1">
                    <mxGeometry x="2340" y="3870" width="120" height="60" as="geometry"/>
                </mxCell>
                <mxCell id="205" value="Yes" style="edgeStyle=none;html=1;" parent="1" source="196" target="204" edge="1">
                    <mxGeometry relative="1" as="geometry"/>
                </mxCell>
                <mxCell id="209" value="No" style="edgeStyle=none;html=1;" parent="1" source="196" edge="1">
                    <mxGeometry relative="1" as="geometry">
                        <mxPoint x="2980" y="2900" as="targetPoint"/>
                        <Array as="points">
                            <mxPoint x="2385" y="2900"/>
                        </Array>
                    </mxGeometry>
                </mxCell>
                <mxCell id="196" value="lastMotion &amp;lt; MotionSleepEnter" style="rhombus;whiteSpace=wrap;html=1;" parent="1" vertex="1">
                    <mxGeometry x="2307.5" y="2940" width="120" height="120" as="geometry"/>
                </mxCell>
                <mxCell id="207" value="" style="edgeStyle=none;html=1;entryX=1;entryY=0.5;entryDx=0;entryDy=0;" parent="1" target="155" edge="1">
                    <mxGeometry relative="1" as="geometry">
                        <mxPoint x="2980" y="3810" as="sourcePoint"/>
                        <mxPoint x="2530" y="2120" as="targetPoint"/>
                        <Array as="points">
                            <mxPoint x="2980" y="2930"/>
                            <mxPoint x="2980" y="2320"/>
                            <mxPoint x="2870" y="2320"/>
                            <mxPoint x="2700" y="2220"/>
                            <mxPoint x="2700" y="2080"/>
                        </Array>
                    </mxGeometry>
                </mxCell>
                <mxCell id="263" value="" style="edgeStyle=none;html=1;" parent="1" source="204" edge="1">
                    <mxGeometry relative="1" as="geometry">
                        <mxPoint x="2980" y="3000" as="targetPoint"/>
                    </mxGeometry>
                </mxCell>
                <mxCell id="204" value="Light" style="whiteSpace=wrap;html=1;" parent="1" vertex="1">
                    <mxGeometry x="2705" y="2970" width="120" height="60" as="geometry"/>
                </mxCell>
                <mxCell id="214" value="Yes" style="edgeStyle=none;html=1;entryX=0;entryY=0.5;entryDx=0;entryDy=0;" parent="1" source="210" target="213" edge="1">
                    <mxGeometry relative="1" as="geometry">
                        <mxPoint x="2505" y="3080" as="targetPoint"/>
                    </mxGeometry>
                </mxCell>
                <mxCell id="229" value="No" style="edgeStyle=none;html=1;" parent="1" source="210" target="228" edge="1">
                    <mxGeometry relative="1" as="geometry"/>
                </mxCell>
                <mxCell id="210" value="lastMotion &amp;gt; MotionSleepEnter" style="rhombus;whiteSpace=wrap;html=1;" parent="1" vertex="1">
                    <mxGeometry x="2307.5" y="3180" width="120" height="120" as="geometry"/>
                </mxCell>
                <mxCell id="218" value="Yes" style="edgeStyle=none;html=1;entryX=0;entryY=0.5;entryDx=0;entryDy=0;" parent="1" source="211" target="215" edge="1">
                    <mxGeometry relative="1" as="geometry">
                        <mxPoint x="2512.5" y="3343.4236986301366" as="targetPoint"/>
                    </mxGeometry>
                </mxCell>
                <mxCell id="232" value="No" style="edgeStyle=none;html=1;" parent="1" source="211" target="231" edge="1">
                    <mxGeometry relative="1" as="geometry"/>
                </mxCell>
                <mxCell id="211" value="lastMotion &amp;gt; MotionSleepEnter" style="rhombus;whiteSpace=wrap;html=1;" parent="1" vertex="1">
                    <mxGeometry x="2307.5" y="3420" width="120" height="120" as="geometry"/>
                </mxCell>
                <mxCell id="217" value="Yes" style="edgeStyle=none;html=1;entryX=0;entryY=0.5;entryDx=0;entryDy=0;" parent="1" source="212" target="216" edge="1">
                    <mxGeometry relative="1" as="geometry">
                        <mxPoint x="2512.5" y="3543.013698630137" as="targetPoint"/>
                    </mxGeometry>
                </mxCell>
                <mxCell id="234" value="No" style="edgeStyle=none;html=1;" parent="1" source="212" target="233" edge="1">
                    <mxGeometry relative="1" as="geometry"/>
                </mxCell>
                <mxCell id="212" value="lastMotion &amp;gt; MotionSleepEnter" style="rhombus;whiteSpace=wrap;html=1;" parent="1" vertex="1">
                    <mxGeometry x="2307.5" y="3630" width="120" height="120" as="geometry"/>
                </mxCell>
                <mxCell id="220" value="" style="edgeStyle=none;html=1;" parent="1" source="213" edge="1">
                    <mxGeometry relative="1" as="geometry">
                        <mxPoint x="2980" y="3330" as="targetPoint"/>
                    </mxGeometry>
                </mxCell>
                <mxCell id="213" value="Wake" style="whiteSpace=wrap;html=1;" parent="1" vertex="1">
                    <mxGeometry x="2490" y="3300" width="120" height="60" as="geometry"/>
                </mxCell>
                <mxCell id="222" value="" style="edgeStyle=none;html=1;exitX=1;exitY=0.5;exitDx=0;exitDy=0;" parent="1" source="215" edge="1">
                    <mxGeometry relative="1" as="geometry">
                        <mxPoint x="2632.5" y="3320.41" as="sourcePoint"/>
                        <mxPoint x="2980" y="3550" as="targetPoint"/>
                    </mxGeometry>
                </mxCell>
                <mxCell id="215" value="Wake" style="whiteSpace=wrap;html=1;" parent="1" vertex="1">
                    <mxGeometry x="2490" y="3520.41" width="120" height="60" as="geometry"/>
                </mxCell>
                <mxCell id="224" value="" style="edgeStyle=none;html=1;" parent="1" source="216" edge="1">
                    <mxGeometry relative="1" as="geometry">
                        <mxPoint x="2980" y="3810" as="targetPoint"/>
                    </mxGeometry>
                </mxCell>
                <mxCell id="216" value="Wake" style="whiteSpace=wrap;html=1;" parent="1" vertex="1">
                    <mxGeometry x="2490" y="3780" width="120" height="60" as="geometry"/>
                </mxCell>
                <mxCell id="240" value="" style="edgeStyle=none;html=1;" parent="1" source="228" target="239" edge="1">
                    <mxGeometry relative="1" as="geometry"/>
                </mxCell>
                <mxCell id="242" value="" style="edgeStyle=none;html=1;" parent="1" source="228" target="239" edge="1">
                    <mxGeometry relative="1" as="geometry"/>
                </mxCell>
                <mxCell id="243" value="No" style="edgeStyle=none;html=1;" parent="1" source="228" target="239" edge="1">
                    <mxGeometry relative="1" as="geometry"/>
                </mxCell>
                <mxCell id="244" value="Yes" style="edgeStyle=none;html=1;entryX=0;entryY=0.5;entryDx=0;entryDy=0;" parent="1" source="228" target="245" edge="1">
                    <mxGeometry relative="1" as="geometry">
                        <mxPoint x="2710" y="3250" as="targetPoint"/>
                    </mxGeometry>
                </mxCell>
                <mxCell id="228" value="lastMotion &amp;lt; MotionDeepEnter&lt;br&gt;&amp;amp;&amp;amp;&lt;br&gt;isDeepSlidingFn" style="rhombus;whiteSpace=wrap;html=1;" parent="1" vertex="1">
                    <mxGeometry x="2410" y="3040" width="190" height="180" as="geometry"/>
                </mxCell>
                <mxCell id="238" value="No" style="edgeStyle=none;html=1;" parent="1" source="231" edge="1">
                    <mxGeometry relative="1" as="geometry">
                        <mxPoint x="2980" y="3360" as="targetPoint"/>
                        <Array as="points">
                            <mxPoint x="2720" y="3360"/>
                        </Array>
                    </mxGeometry>
                </mxCell>
                <mxCell id="255" value="Yes" style="edgeStyle=none;html=1;" parent="1" source="231" target="254" edge="1">
                    <mxGeometry relative="1" as="geometry"/>
                </mxCell>
                <mxCell id="231" value="&lt;span&gt;lastMotion &amp;lt; MotionRemExit&lt;br&gt;&lt;/span&gt;||&lt;br&gt;lastHR &amp;lt; (HRaverage*HrAvgRemExit)&lt;br&gt;" style="rhombus;whiteSpace=wrap;html=1;" parent="1" vertex="1">
                    <mxGeometry x="2430" y="3380" width="290" height="130" as="geometry"/>
                </mxCell>
                <mxCell id="236" value="" style="edgeStyle=none;html=1;" parent="1" source="233" edge="1">
                    <mxGeometry relative="1" as="geometry">
                        <mxPoint x="2980" y="3590" as="targetPoint"/>
                        <Array as="points">
                            <mxPoint x="2700" y="3590"/>
                        </Array>
                    </mxGeometry>
                </mxCell>
                <mxCell id="257" value="Yes" style="edgeStyle=none;html=1;" parent="1" source="233" target="256" edge="1">
                    <mxGeometry relative="1" as="geometry"/>
                </mxCell>
                <mxCell id="233" value="&lt;span&gt;lastMotion &amp;lt; MotionDeepExit&lt;br&gt;&lt;/span&gt;&lt;span&gt;||&lt;/span&gt;&lt;br&gt;&lt;span&gt;lastHR &amp;lt; (HRaverage*HrAvgDeepExit)&lt;/span&gt;" style="rhombus;whiteSpace=wrap;html=1;" parent="1" vertex="1">
                    <mxGeometry x="2450" y="3600" width="270" height="150" as="geometry"/>
                </mxCell>
                <mxCell id="249" value="No" style="edgeStyle=none;html=1;" parent="1" source="239" edge="1">
                    <mxGeometry relative="1" as="geometry">
                        <mxPoint x="2980" y="3050" as="targetPoint"/>
                        <Array as="points">
                            <mxPoint x="2780" y="3050"/>
                        </Array>
                    </mxGeometry>
                </mxCell>
                <mxCell id="250" value="Yes" style="edgeStyle=none;html=1;entryX=0;entryY=0.5;entryDx=0;entryDy=0;" parent="1" source="239" target="251" edge="1">
                    <mxGeometry relative="1" as="geometry">
                        <mxPoint x="2780" y="3180" as="targetPoint"/>
                    </mxGeometry>
                </mxCell>
                <mxCell id="239" value="&lt;span&gt;lastMotion &amp;lt; MotionRemEnter&lt;/span&gt;&lt;br&gt;&lt;span&gt;&amp;amp;&amp;amp;&lt;/span&gt;&lt;br&gt;&lt;span&gt;isRemSlidingFn&lt;/span&gt;" style="rhombus;whiteSpace=wrap;html=1;" parent="1" vertex="1">
                    <mxGeometry x="2630" y="3050" width="200" height="170" as="geometry"/>
                </mxCell>
                <mxCell id="247" value="" style="edgeStyle=none;html=1;" parent="1" source="245" edge="1">
                    <mxGeometry relative="1" as="geometry">
                        <mxPoint x="2980" y="3270" as="targetPoint"/>
                    </mxGeometry>
                </mxCell>
                <mxCell id="245" value="Deep" style="whiteSpace=wrap;html=1;" parent="1" vertex="1">
                    <mxGeometry x="2650" y="3240" width="120" height="60" as="geometry"/>
                </mxCell>
                <mxCell id="253" value="" style="edgeStyle=none;html=1;" parent="1" source="251" edge="1">
                    <mxGeometry relative="1" as="geometry">
                        <mxPoint x="2980" y="3190" as="targetPoint"/>
                    </mxGeometry>
                </mxCell>
                <mxCell id="251" value="REM" style="whiteSpace=wrap;html=1;" parent="1" vertex="1">
                    <mxGeometry x="2825" y="3160" width="120" height="60" as="geometry"/>
                </mxCell>
                <mxCell id="261" value="" style="edgeStyle=none;html=1;" parent="1" source="254" edge="1">
                    <mxGeometry relative="1" as="geometry">
                        <mxPoint x="2980" y="3470" as="targetPoint"/>
                    </mxGeometry>
                </mxCell>
                <mxCell id="254" value="Light" style="whiteSpace=wrap;html=1;" parent="1" vertex="1">
                    <mxGeometry x="2780" y="3440.41" width="120" height="60" as="geometry"/>
                </mxCell>
                <mxCell id="259" value="" style="edgeStyle=none;html=1;" parent="1" source="256" edge="1">
                    <mxGeometry relative="1" as="geometry">
                        <mxPoint x="2980" y="3730" as="targetPoint"/>
                    </mxGeometry>
                </mxCell>
                <mxCell id="256" value="Light" style="whiteSpace=wrap;html=1;" parent="1" vertex="1">
                    <mxGeometry x="2785" y="3700" width="120" height="60" as="geometry"/>
                </mxCell>
                <mxCell id="273" value="No" style="edgeStyle=none;html=1;" parent="1" source="271" edge="1">
                    <mxGeometry relative="1" as="geometry">
                        <mxPoint x="2208" y="2210" as="targetPoint"/>
                    </mxGeometry>
                </mxCell>
                <mxCell id="276" value="Yes" style="edgeStyle=none;html=1;entryX=0.5;entryY=0;entryDx=0;entryDy=0;" parent="1" source="271" target="275" edge="1">
                    <mxGeometry relative="1" as="geometry">
                        <Array as="points">
                            <mxPoint x="1830" y="2140"/>
                        </Array>
                    </mxGeometry>
                </mxCell>
                <mxCell id="271" value="IterationOver" style="rhombus;whiteSpace=wrap;html=1;" parent="1" vertex="1">
                    <mxGeometry x="2168.75" y="2100" width="80" height="80" as="geometry"/>
                </mxCell>
                <mxCell id="278" value="" style="edgeStyle=none;html=1;" parent="1" source="275" target="277" edge="1">
                    <mxGeometry relative="1" as="geometry"/>
                </mxCell>
                <mxCell id="310" value="" style="edgeStyle=none;html=1;" parent="1" source="275" target="309" edge="1">
                    <mxGeometry relative="1" as="geometry"/>
                </mxCell>
                <mxCell id="275" value="Iterate Over Raw Hypnogram just created&lt;br&gt;&lt;br&gt;starting with i = 0 and lastId = -1" style="whiteSpace=wrap;html=1;" parent="1" vertex="1">
                    <mxGeometry x="1660" y="2230" width="120" height="100" as="geometry"/>
                </mxCell>
                <mxCell id="280" value="" style="edgeStyle=none;html=1;" parent="1" source="277" target="279" edge="1">
                    <mxGeometry relative="1" as="geometry"/>
                </mxCell>
                <mxCell id="290" value="" style="edgeStyle=none;html=1;" parent="1" source="277" target="289" edge="1">
                    <mxGeometry relative="1" as="geometry"/>
                </mxCell>
                <mxCell id="277" value="is Wake?" style="rhombus;whiteSpace=wrap;html=1;" parent="1" vertex="1">
                    <mxGeometry x="1680" y="2360" width="80" height="80" as="geometry"/>
                </mxCell>
                <mxCell id="284" value="" style="edgeStyle=none;html=1;" parent="1" source="279" target="283" edge="1">
                    <mxGeometry relative="1" as="geometry"/>
                </mxCell>
                <mxCell id="300" value="" style="edgeStyle=none;html=1;" parent="1" source="279" target="299" edge="1">
                    <mxGeometry relative="1" as="geometry"/>
                </mxCell>
                <mxCell id="279" value="is lastId&lt;br&gt;&amp;nbsp;= -1?" style="rhombus;whiteSpace=wrap;html=1;" parent="1" vertex="1">
                    <mxGeometry x="1680" y="2520" width="80" height="80" as="geometry"/>
                </mxCell>
                <mxCell id="288" value="" style="edgeStyle=none;html=1;" parent="1" source="283" edge="1">
                    <mxGeometry relative="1" as="geometry">
                        <mxPoint x="2050" y="2480" as="targetPoint"/>
                        <Array as="points">
                            <mxPoint x="2050" y="2560"/>
                        </Array>
                    </mxGeometry>
                </mxCell>
                <mxCell id="283" value="set lastId = i" style="whiteSpace=wrap;html=1;" parent="1" vertex="1">
                    <mxGeometry x="1790" y="2540" width="70" height="40" as="geometry"/>
                </mxCell>
                <mxCell id="292" value="No" style="edgeStyle=none;html=1;" parent="1" source="289" target="291" edge="1">
                    <mxGeometry relative="1" as="geometry"/>
                </mxCell>
                <mxCell id="293" value="yes" style="edgeStyle=none;html=1;entryX=0;entryY=0.5;entryDx=0;entryDy=0;" parent="1" source="289" target="294" edge="1">
                    <mxGeometry relative="1" as="geometry">
                        <mxPoint x="1870" y="2460" as="targetPoint"/>
                    </mxGeometry>
                </mxCell>
                <mxCell id="289" value="is lastId = -1" style="rhombus;whiteSpace=wrap;html=1;" parent="1" vertex="1">
                    <mxGeometry x="1790" y="2360" width="80" height="80" as="geometry"/>
                </mxCell>
                <mxCell id="295" value="" style="edgeStyle=none;html=1;" parent="1" source="291" target="294" edge="1">
                    <mxGeometry relative="1" as="geometry"/>
                </mxCell>
                <mxCell id="291" value="push raw[lastId] value and start and raw[i] start for end" style="whiteSpace=wrap;html=1;" parent="1" vertex="1">
                    <mxGeometry x="1877.5" y="2330" width="132.5" height="43.12" as="geometry"/>
                </mxCell>
                <mxCell id="297" value="" style="edgeStyle=none;html=1;" parent="1" source="294" target="296" edge="1">
                    <mxGeometry relative="1" as="geometry"/>
                </mxCell>
                <mxCell id="294" value="push raw[i]" style="whiteSpace=wrap;html=1;" parent="1" vertex="1">
                    <mxGeometry x="1877.5" y="2430" width="132.5" height="30" as="geometry"/>
                </mxCell>
                <mxCell id="298" value="" style="edgeStyle=none;html=1;entryX=1;entryY=0.5;entryDx=0;entryDy=0;" parent="1" source="296" target="275" edge="1">
                    <mxGeometry relative="1" as="geometry">
                        <Array as="points">
                            <mxPoint x="2050" y="2494"/>
                            <mxPoint x="2050" y="2280"/>
                        </Array>
                    </mxGeometry>
                </mxCell>
                <mxCell id="296" value="set lastId = -1" style="whiteSpace=wrap;html=1;" parent="1" vertex="1">
                    <mxGeometry x="1883.75" y="2478.75" width="120" height="31.25" as="geometry"/>
                </mxCell>
                <mxCell id="302" value="True" style="edgeStyle=none;html=1;" parent="1" source="299" target="301" edge="1">
                    <mxGeometry relative="1" as="geometry"/>
                </mxCell>
                <mxCell id="308" value="False" style="edgeStyle=none;html=1;" parent="1" source="299" edge="1">
                    <mxGeometry x="-0.75" relative="1" as="geometry">
                        <mxPoint x="2050" y="2860" as="targetPoint"/>
                        <Array as="points">
                            <mxPoint x="1720" y="2990"/>
                            <mxPoint x="2050" y="2990"/>
                        </Array>
                        <mxPoint as="offset"/>
                    </mxGeometry>
                </mxCell>
                <mxCell id="299" value="if span of start to end is greater than hrQuantTime &amp;amp;&amp;amp;&lt;br&gt;last state is differnt than this state" style="rhombus;whiteSpace=wrap;html=1;" parent="1" vertex="1">
                    <mxGeometry x="1650" y="2660" width="140" height="150" as="geometry"/>
                </mxCell>
                <mxCell id="304" value="" style="edgeStyle=none;html=1;" parent="1" source="301" target="303" edge="1">
                    <mxGeometry relative="1" as="geometry"/>
                </mxCell>
                <mxCell id="301" value="push raw[lastId] value and start and raw[i] start for end" style="whiteSpace=wrap;html=1;" parent="1" vertex="1">
                    <mxGeometry x="1880" y="2705" width="120" height="60" as="geometry"/>
                </mxCell>
                <mxCell id="306" value="" style="edgeStyle=none;html=1;" parent="1" source="303" edge="1">
                    <mxGeometry relative="1" as="geometry">
                        <mxPoint x="2050" y="2550" as="targetPoint"/>
                        <Array as="points">
                            <mxPoint x="2050" y="2870"/>
                        </Array>
                    </mxGeometry>
                </mxCell>
                <mxCell id="303" value="set lastId = i" style="whiteSpace=wrap;html=1;" parent="1" vertex="1">
                    <mxGeometry x="1880" y="2845" width="120" height="60" as="geometry"/>
                </mxCell>
                <mxCell id="326" value="" style="edgeStyle=none;html=1;entryX=0.427;entryY=1.025;entryDx=0;entryDy=0;entryPerimeter=0;" parent="1" source="309" target="317" edge="1">
                    <mxGeometry relative="1" as="geometry">
                        <mxPoint x="1520" y="2170" as="targetPoint"/>
                        <Array as="points">
                            <mxPoint x="1520" y="2160"/>
                            <mxPoint x="2174" y="1890"/>
                        </Array>
                    </mxGeometry>
                </mxCell>
                <mxCell id="309" value="Finish FencePost if lastId does not equal -1" style="whiteSpace=wrap;html=1;" parent="1" vertex="1">
                    <mxGeometry x="1460" y="2250" width="120" height="60" as="geometry"/>
                </mxCell>
                <mxCell id="315" value="" style="edgeStyle=none;html=1;" parent="1" source="313" target="314" edge="1">
                    <mxGeometry relative="1" as="geometry"/>
                </mxCell>
                <mxCell id="313" value="HypnoCalc2&lt;br&gt;End" style="whiteSpace=wrap;html=1;" parent="1" vertex="1">
                    <mxGeometry x="1360" y="1530" width="120" height="60" as="geometry"/>
                </mxCell>
                <mxCell id="369" value="" style="edgeStyle=none;html=1;" parent="1" source="314" target="368" edge="1">
                    <mxGeometry relative="1" as="geometry"/>
                </mxCell>
                <mxCell id="314" value="Calculate all stats from hyonogram" style="whiteSpace=wrap;html=1;" parent="1" vertex="1">
                    <mxGeometry x="1360" y="1670" width="120" height="60" as="geometry"/>
                </mxCell>
                <mxCell id="322" value="" style="edgeStyle=none;html=1;entryX=1;entryY=0.5;entryDx=0;entryDy=0;exitX=0.038;exitY=0.675;exitDx=0;exitDy=0;exitPerimeter=0;" parent="1" source="317" target="313" edge="1">
                    <mxGeometry relative="1" as="geometry">
                        <mxPoint x="1965.5555555555557" y="1682.5" as="targetPoint"/>
                        <Array as="points">
                            <mxPoint x="1610" y="1530"/>
                        </Array>
                    </mxGeometry>
                </mxCell>
                <mxCell id="324" value="" style="edgeStyle=none;html=1;entryX=0.433;entryY=-0.042;entryDx=0;entryDy=0;entryPerimeter=0;" parent="1" source="317" target="155" edge="1">
                    <mxGeometry relative="1" as="geometry">
                        <mxPoint x="2170" y="1640" as="targetPoint"/>
                    </mxGeometry>
                </mxCell>
                <mxCell id="334" value="" style="edgeStyle=none;html=1;entryX=0;entryY=0.5;entryDx=0;entryDy=0;exitX=0.991;exitY=0.6;exitDx=0;exitDy=0;exitPerimeter=0;" parent="1" source="317" target="328" edge="1">
                    <mxGeometry relative="1" as="geometry">
                        <mxPoint x="2200" y="1380" as="targetPoint"/>
                        <Array as="points">
                            <mxPoint x="2630" y="1518"/>
                        </Array>
                    </mxGeometry>
                </mxCell>
                <mxCell id="317" value="HypnoCalc2" style="ellipse;whiteSpace=wrap;html=1;" parent="1" vertex="1">
                    <mxGeometry x="2020" y="1470" width="360" height="80" as="geometry"/>
                </mxCell>
                <mxCell id="332" value="" style="edgeStyle=none;html=1;entryX=1;entryY=0.5;entryDx=0;entryDy=0;" parent="1" source="327" target="317" edge="1">
                    <mxGeometry relative="1" as="geometry">
                        <mxPoint x="2610" y="1440" as="targetPoint"/>
                        <Array as="points">
                            <mxPoint x="2620" y="1500"/>
                        </Array>
                    </mxGeometry>
                </mxCell>
                <mxCell id="327" value="HypnoCalc2&lt;br&gt;Start" style="whiteSpace=wrap;html=1;" parent="1" vertex="1">
                    <mxGeometry x="2690" y="1410" width="120" height="60" as="geometry"/>
                </mxCell>
                <mxCell id="336" value="" style="edgeStyle=none;html=1;" parent="1" source="328" target="335" edge="1">
                    <mxGeometry relative="1" as="geometry"/>
                </mxCell>
                <mxCell id="328" value="HypnoCalc2&lt;br&gt;End" style="whiteSpace=wrap;html=1;" parent="1" vertex="1">
                    <mxGeometry x="2695" y="1530" width="120" height="60" as="geometry"/>
                </mxCell>
                <mxCell id="338" value="" style="edgeStyle=none;html=1;" parent="1" source="335" target="337" edge="1">
                    <mxGeometry relative="1" as="geometry"/>
                </mxCell>
                <mxCell id="335" value="Calc total times for Sleep States" style="whiteSpace=wrap;html=1;" parent="1" vertex="1">
                    <mxGeometry x="2695" y="1620" width="120" height="60" as="geometry"/>
                </mxCell>
                <mxCell id="341" value="" style="edgeStyle=none;html=1;" parent="1" source="337" target="340" edge="1">
                    <mxGeometry relative="1" as="geometry"/>
                </mxCell>
                <mxCell id="337" value="Calc average distance from goals" style="whiteSpace=wrap;html=1;" parent="1" vertex="1">
                    <mxGeometry x="2695" y="1710" width="120" height="60" as="geometry"/>
                </mxCell>
                <mxCell id="345" value="" style="edgeStyle=none;html=1;" parent="1" source="340" target="344" edge="1">
                    <mxGeometry relative="1" as="geometry"/>
                </mxCell>
                <mxCell id="349" value="" style="edgeStyle=none;html=1;" parent="1" source="340" target="348" edge="1">
                    <mxGeometry relative="1" as="geometry"/>
                </mxCell>
                <mxCell id="340" value="is average less than lowest?" style="rhombus;whiteSpace=wrap;html=1;" parent="1" vertex="1">
                    <mxGeometry x="2690" y="1820" width="130" height="100" as="geometry"/>
                </mxCell>
                <mxCell id="347" value="" style="edgeStyle=none;html=1;entryX=0.5;entryY=1;entryDx=0;entryDy=0;" parent="1" source="344" target="348" edge="1">
                    <mxGeometry relative="1" as="geometry">
                        <mxPoint x="2965" y="1900" as="targetPoint"/>
                        <Array as="points">
                            <mxPoint x="2965" y="1980"/>
                        </Array>
                    </mxGeometry>
                </mxCell>
                <mxCell id="344" value="set lowest = average&lt;br&gt;bestHp = hp" style="whiteSpace=wrap;html=1;" parent="1" vertex="1">
                    <mxGeometry x="2695" y="1950" width="120" height="60" as="geometry"/>
                </mxCell>
                <mxCell id="361" value="Yes" style="edgeStyle=none;html=1;" parent="1" source="348" target="360" edge="1">
                    <mxGeometry relative="1" as="geometry"/>
                </mxCell>
                <mxCell id="366" value="" style="edgeStyle=none;html=1;entryX=1;entryY=0.5;entryDx=0;entryDy=0;" parent="1" source="348" target="139" edge="1">
                    <mxGeometry relative="1" as="geometry">
                        <mxPoint x="2965" y="1625" as="targetPoint"/>
                        <Array as="points">
                            <mxPoint x="2965" y="1670"/>
                            <mxPoint x="3130" y="1670"/>
                            <mxPoint x="3130" y="1255"/>
                        </Array>
                    </mxGeometry>
                </mxCell>
                <mxCell id="367" value="No" style="edgeLabel;html=1;align=center;verticalAlign=middle;resizable=0;points=[];" parent="366" vertex="1" connectable="0">
                    <mxGeometry x="-0.8728" y="-3" relative="1" as="geometry">
                        <mxPoint as="offset"/>
                    </mxGeometry>
                </mxCell>
                <mxCell id="348" value="Is&lt;br&gt;time deep &amp;gt;= DeepMin&lt;br&gt;time deep &amp;lt;= DeepMax&lt;br&gt;time rem &amp;gt;= REMMin&lt;br&gt;time rem &amp;lt;= REMMax&lt;br&gt;" style="rhombus;whiteSpace=wrap;html=1;" parent="1" vertex="1">
                    <mxGeometry x="2870" y="1770" width="190" height="190" as="geometry"/>
                </mxCell>
                <mxCell id="353" value="" style="edgeStyle=none;html=1;" parent="1" source="350" target="352" edge="1">
                    <mxGeometry relative="1" as="geometry"/>
                </mxCell>
                <mxCell id="358" value="Yes" style="edgeLabel;html=1;align=center;verticalAlign=middle;resizable=0;points=[];" parent="353" vertex="1" connectable="0">
                    <mxGeometry x="0.1694" relative="1" as="geometry">
                        <mxPoint as="offset"/>
                    </mxGeometry>
                </mxCell>
                <mxCell id="357" value="No" style="edgeStyle=none;html=1;entryX=1;entryY=0.5;entryDx=0;entryDy=0;" parent="1" source="350" target="139" edge="1">
                    <mxGeometry x="-0.8983" relative="1" as="geometry">
                        <mxPoint x="3445" y="1865" as="targetPoint"/>
                        <Array as="points">
                            <mxPoint x="3440" y="1865"/>
                            <mxPoint x="3440" y="1255"/>
                        </Array>
                        <mxPoint as="offset"/>
                    </mxGeometry>
                </mxCell>
                <mxCell id="350" value="Is time in Deep + time in Rem&lt;br&gt;greater than maxBestFirst" style="rhombus;whiteSpace=wrap;html=1;" parent="1" vertex="1">
                    <mxGeometry x="3210" y="1770" width="190" height="190" as="geometry"/>
                </mxCell>
                <mxCell id="355" value="" style="edgeStyle=none;html=1;entryX=1;entryY=0.5;entryDx=0;entryDy=0;" parent="1" source="352" target="139" edge="1">
                    <mxGeometry relative="1" as="geometry">
                        <mxPoint x="3235" y="1250" as="targetPoint"/>
                        <Array as="points">
                            <mxPoint x="3300" y="1250"/>
                        </Array>
                    </mxGeometry>
                </mxCell>
                <mxCell id="352" value="bestFirstHp = hp&lt;br&gt;maxBestFirst = Sum (time Deep and REM)" style="whiteSpace=wrap;html=1;" parent="1" vertex="1">
                    <mxGeometry x="3245" y="1565" width="120" height="60" as="geometry"/>
                </mxCell>
                <mxCell id="363" value="" style="edgeStyle=none;html=1;entryX=0;entryY=0.5;entryDx=0;entryDy=0;" parent="1" source="360" target="350" edge="1">
                    <mxGeometry relative="1" as="geometry">
                        <mxPoint x="3270" y="1730" as="targetPoint"/>
                    </mxGeometry>
                </mxCell>
                <mxCell id="360" value="found fit= true" style="whiteSpace=wrap;html=1;" parent="1" vertex="1">
                    <mxGeometry x="3110" y="1835" width="80" height="60" as="geometry"/>
                </mxCell>
                <mxCell id="368" value="DONE!!!!" style="ellipse;whiteSpace=wrap;html=1;" parent="1" vertex="1">
                    <mxGeometry x="1360" y="1810" width="120" height="60" as="geometry"/>
                </mxCell>
                <mxCell id="372" value="Make Fake Motion" style="ellipse;whiteSpace=wrap;html=1;fillColor=none;verticalAlign=top;" parent="1" vertex="1">
                    <mxGeometry x="240" y="120" width="750" height="840" as="geometry"/>
                </mxCell>
                <mxCell id="375" value="" style="edgeStyle=none;html=1;" parent="1" source="373" target="374" edge="1">
                    <mxGeometry relative="1" as="geometry"/>
                </mxCell>
                <mxCell id="373" value="BEGIN!!!" style="ellipse;whiteSpace=wrap;html=1;fillColor=none;" parent="1" vertex="1">
                    <mxGeometry x="1300" y="-190" width="230" height="110" as="geometry"/>
                </mxCell>
                <mxCell id="377" value="" style="edgeStyle=none;html=1;entryX=0.5;entryY=0;entryDx=0;entryDy=0;" parent="1" source="374" target="2" edge="1">
                    <mxGeometry relative="1" as="geometry">
                        <mxPoint x="1275" y="10" as="targetPoint"/>
                        <Array as="points">
                            <mxPoint x="165" y="10"/>
                        </Array>
                    </mxGeometry>
                </mxCell>
                <mxCell id="374" value="Set Poles" style="whiteSpace=wrap;html=1;fillColor=none;" parent="1" vertex="1">
                    <mxGeometry x="1355" y="-20" width="120" height="60" as="geometry"/>
                </mxCell>
                <mxCell id="378" value="Create Sleep Range" style="ellipse;whiteSpace=wrap;html=1;fillColor=none;verticalAlign=top;" parent="1" vertex="1">
                    <mxGeometry x="-830" y="160" width="910" height="1180" as="geometry"/>
                </mxCell>
                <mxCell id="379" value="Make Fake Sleep Range" style="ellipse;whiteSpace=wrap;html=1;fillColor=none;verticalAlign=top;" parent="1" vertex="1">
                    <mxGeometry x="300" y="970" width="500" height="440" as="geometry"/>
                </mxCell>
                <mxCell id="380" value="&lt;br&gt;Make list of Pstates&lt;br&gt;Used to decide when to check for a new sleep state" style="ellipse;whiteSpace=wrap;html=1;fillColor=none;verticalAlign=top;" parent="1" vertex="1">
                    <mxGeometry x="-190" y="1560" width="690" height="650" as="geometry"/>
                </mxCell>
                <mxCell id="381" value="TOTALLY FAKE!" style="ellipse;whiteSpace=wrap;html=1;fillColor=none;verticalAlign=top;" parent="1" vertex="1">
                    <mxGeometry x="1570" y="100" width="380" height="290" as="geometry"/>
                </mxCell>
                <mxCell id="382" value="Adjusting params searcher for best Hypnogram" style="ellipse;whiteSpace=wrap;html=1;fillColor=none;verticalAlign=top;direction=west;rotation=15;" parent="1" vertex="1">
                    <mxGeometry x="1184.51" y="584.96" width="2036.81" height="738.24" as="geometry"/>
                </mxCell>
                <mxCell id="383" value="Generate A Hypnogram&lt;span style=&quot;color: rgba(0 , 0 , 0 , 0) ; font-family: monospace ; font-size: 0px&quot;&gt;%3CmxGraphModel%3E%3Croot%3E%3CmxCell%20id%3D%220%22%2F%3E%3CmxCell%20id%3D%221%22%20parent%3D%220%22%2F%3E%3CmxCell%20id%3D%222%22%20value%3D%22Make%20Fake%20Motion%22%20style%3D%22ellipse%3BwhiteSpace%3Dwrap%3Bhtml%3D1%3BfillColor%3Dnone%3BverticalAlign%3Dtop%3B%22%20vertex%3D%221%22%20parent%3D%221%22%3E%3CmxGeometry%20x%3D%22260%22%20y%3D%2280%22%20width%3D%22750%22%20height%3D%22840%22%20as%3D%22geometry%22%2F%3E%3C%2FmxCell%3E%3C%2Froot%3E%3C%2FmxGraphModel%3E&lt;/span&gt;" style="ellipse;whiteSpace=wrap;html=1;fillColor=none;verticalAlign=top;" parent="1" vertex="1">
                    <mxGeometry x="1070" y="1835" width="2140" height="2465" as="geometry"/>
                </mxCell>
                <mxCell id="385" value="Testing Poles of hyongram generated by params" style="ellipse;whiteSpace=wrap;html=1;fillColor=none;verticalAlign=top;" parent="1" vertex="1">
                    <mxGeometry x="2420" y="1340" width="1280" height="810" as="geometry"/>
                </mxCell>
                <mxCell id="386" value="let motion = active energy&lt;br&gt;&lt;br&gt;&lt;span style=&quot;font-family: &amp;#34;menlo&amp;#34; , &amp;#34;monaco&amp;#34; , &amp;#34;courier new&amp;#34; , monospace ; color: rgb(156 , 220 , 254)&quot;&gt;motionScale&lt;/span&gt;&lt;span style=&quot;color: rgb(212 , 212 , 212) ; font-family: &amp;#34;menlo&amp;#34; , &amp;#34;monaco&amp;#34; , &amp;#34;courier new&amp;#34; , monospace ; background-color: rgb(30 , 30 , 30)&quot;&gt;&amp;nbsp;=&amp;nbsp;&lt;/span&gt;&lt;span style=&quot;font-family: &amp;#34;menlo&amp;#34; , &amp;#34;monaco&amp;#34; , &amp;#34;courier new&amp;#34; , monospace ; color: rgb(181 , 206 , 168)&quot;&gt;4.0&lt;/span&gt;" style="whiteSpace=wrap;html=1;" vertex="1" parent="1">
                    <mxGeometry x="630" y="720" width="140" height="60" as="geometry"/>
                </mxCell>
            </root>
        </mxGraphModel>
    </diagram>
</mxfile>